<svg t="1588921676352" class="icon" viewBox="0 0 1126 1024" version="1.1" xmlns="http://www.w3.org/2000/svg" p-id="16634" width="200" height="200"><path d="M923.477321 961.215001H177.431671c-73.431952 0-133.222469-59.296554-133.222468-132.12224V194.905484c0-72.825686 59.790516-132.12224 133.222468-132.122239h746.04565c73.431952 0 133.222469 59.296554 133.222468 132.122239v634.187277c0.000877 72.825686-59.736119 132.12224-133.222468 132.12224zM177.431671 115.631088c-44.0697 0-79.933306 35.567053-79.933305 79.273519v634.187277c0 43.706466 35.863606 79.273519 79.933305 79.273519h746.04565c44.0697 0 79.933306-35.567053 79.933305-79.273519V194.904607c0-43.706466-35.863606-79.273519-79.933305-79.273519H177.431671z" p-id="16635"></path><path d="M197.482336 529.741851c7.84988-1.986378 21.562383-5.390596 41.139266-10.308286 6.85669-0.993189 11.774381-1.986378 14.705693-2.931312v-85.256344h-51.446675v-23.50226h51.446675v-67.618462h27.898789v67.618462h33.80967v23.501383h-33.80967v77.880247c1.986378-0.945811 5.91088-1.939 11.774381-2.931312 8.842191-1.939 15.698882-3.924501 20.569194-5.863501-0.993189 12.720192-1.466095 22.555572-1.466094 29.412262-7.84988 0.993189-18.158166 3.451596-30.877481 7.329596v98.449441c0.993189 29.412263-14.705693 44.117956-47.049267 44.117956-8.842191 0.945811-18.110788 1.466095-27.89879 1.466094-0.993189-8.842191-2.931312-18.630194-5.91088-29.412262 2.931312 0 8.322785 0.472905 16.171788 1.466094h13.193097c15.698882 0 23.548762-5.91088 23.548762-17.637882V544.400166c-8.842191 1.986378-22.035289 5.390596-39.673171 10.308286-6.85669 1.986378-11.774381 3.451596-14.705693 4.397406l-1.419594-29.364007z m126.394732-148.430898c53.85858-4.91769 117.55254-14.186286 191.03538-27.89879l7.329596 26.432696c-26.432695 3.925379-59.769459 9.315974-99.915535 16.172665v98.448563l120.484729-14.705693 2.931312 26.480074-123.463419 14.705692v102.846848c-1.986378 18.630194 7.84988 26.905601 29.412262 24.966601h29.412263c20.569194 0.993189 31.823291-7.329596 33.80967-24.966601 0.993189-6.85669 1.986378-19.103099 2.931312-36.740982 0.993189-6.85669 1.466095-12.247286 1.466094-16.171787 5.91088 2.931312 13.239598 5.863501 22.035289 8.842192 3.924501 0.993189 6.85669 1.986378 8.842191 2.931312-2.931312 24.493695-5.91088 43.597672-8.842191 57.310175-3.924501 24.493695-22.555572 36.220698-55.844958 35.275764h-38.207076c-37.261265 0.945811-55.324674-15.225976-54.378864-48.515362v-101.380753l-66.105866 7.329596-4.397406-26.480074 70.550651-8.842191V400.367552c-21.562383 2.931312-24.493695 3.451596-8.842192 1.466094-15.698882 1.986378-33.336764 3.924501-52.912769 5.91088-1.939-6.85669-4.398284-15.652381-7.330473-26.433573zM642.774152 335.726903l29.412263 1.466095a396.012259 396.012259 0 0 1-19.103099 33.809669h104.36032v22.035289h-85.208965c3.924501 3.924501 10.781192 10.82857 20.569194 20.569194 3.924501 4.91769 6.85669 8.322785 8.842191 10.308286l-20.616572 16.171787-2.931312-2.931311c-9.835381-12.720192-18.630194-23.548762-26.480074-32.343575l16.171788-11.774381h-30.87748c-14.705693 18.630194-29.412263 33.809669-44.070578 45.535795-4.91769-5.863501-11.301475-12.720192-19.103099-20.569194 30.308063-23.500506 53.336541-50.87989 69.035423-82.277654z m85.208965 83.791126l23.548762-8.842191c3.924501 5.91088 8.794813 14.705693 14.705693 26.480074 0.993189 2.931312 1.986378 4.91769 2.931312 5.863501h142.567396v54.378863h-26.480073v-32.343575H613.409267v32.343575h-24.9666v-54.378863h151.362209c-2.979568-7.84988-6.904069-15.652381-11.821759-23.501384z m-98.44944 72.016746h239.503364v76.414152h-214.535886v24.966601h221.91286v92.585939h-26.480074v-14.705692H654.501155v14.705692H629.534554V491.534775h-0.000877z m25.013978 22.034411v33.80967h188.103191v-33.80967H654.547655z m195.432787 101.38163H654.547655v33.80967h195.432787v-33.80967z m-49.981456-279.223913l29.412262 1.466095c-1.986378 5.863501-5.91088 14.186286-11.77438 24.9666-1.986378 3.924501-3.451596 6.85669-4.397407 8.842192h113.155134v22.035289H835.27475c3.924501 3.924501 9.788002 9.835381 17.637882 17.637882 5.91088 6.85669 9.788002 11.254097 11.774381 13.239598l-20.569194 16.171787c-0.993189-0.993189-2.931312-3.404217-5.863502-7.329596-1.986378-2.931312-9.835381-12.720192-23.548761-29.412263l16.171787-10.308286h-29.364885c-6.904069 11.774381-14.705693 22.035289-23.548761 30.87748-5.863501-5.91088-12.766693-11.774381-20.569194-17.637882 17.637882-20.567439 31.824168-44.067945 42.604483-70.548896z" p-id="16636"></path></svg>