<svg t="1588921641245" class="icon" viewBox="0 0 1024 1024" version="1.1" xmlns="http://www.w3.org/2000/svg" p-id="16506" width="200" height="200"><path d="M895.434948 642.641912V177.328976a19.208997 19.208997 0 0 0-19.281998-19.208998H711.134973a19.356997 19.356997 0 0 1-19.282998-19.282997V19.282997A19.208997 19.208997 0 0 0 672.642978 0.148H349.208022a19.282997 19.282997 0 0 0-19.430997 19.134997v119.553984a19.282997 19.282997 0 0 1-19.208997 19.282997H145.62505a19.208997 19.208997 0 0 0-19.209997 19.209998v465.311936a19.282997 19.282997 0 0 1-19.133998 19.208998H24.364067a19.208997 19.208997 0 0 0-19.207998 19.282997v323.359956a19.208997 19.208997 0 0 0 19.207998 19.134997H347.800022a19.282997 19.282997 0 0 0 19.282998-19.282997V890.131878a19.282997 19.282997 0 0 1 19.208997-19.282997h251.123966a19.282997 19.282997 0 0 1 19.281997 19.282997v114.584985A19.208997 19.208997 0 0 0 675.979978 1023.99986h323.359955a19.208997 19.208997 0 0 0 19.283998-19.282997V681.133907a19.208997 19.208997 0 0 0-19.282998-19.282997h-84.622988a19.208997 19.208997 0 0 1-19.282997-19.209998zM401.790015 52.063993h218.34297a20.024997 20.024997 0 0 1 19.949997 20.024997v218.04597a19.949997 19.949997 0 0 1-19.949997 19.949998H401.791015a19.949997 19.949997 0 0 1-20.097997-19.949998V71.79199a20.024997 20.024997 0 0 1 20.097997-19.727997z m-106.574985 919.649874H76.948059a20.024997 20.024997 0 0 1-20.024997-20.024997v-218.11997a20.024997 20.024997 0 0 1 20.024997-19.949998h218.267971a20.024997 20.024997 0 0 1 19.727997 19.949998v218.33997a20.024997 20.024997 0 0 1-19.727997 19.802997z m364.66995-151.297979H383.622018a19.653997 19.653997 0 0 1-19.653998-19.282998V684.619906a19.653997 19.653997 0 0 0-19.356997-19.653997H196.280043a19.653997 19.653997 0 0 1-20.321997-19.579997V227.909969a19.653997 19.653997 0 0 1 19.653997-19.653997h110.802985a19.653997 19.653997 0 0 1 19.653997 19.653997v111.247985a19.653997 19.653997 0 0 0 19.727998 19.653997h330.257955a19.579997 19.579997 0 0 0 19.652997-19.653997V227.909969a19.727997 19.727997 0 0 1 19.727997-19.653997H826.239957a19.653997 19.653997 0 0 1 19.653997 19.653997v417.475943a19.727997 19.727997 0 0 1-19.653997 19.727997H679.614977a19.653997 19.653997 0 0 0-19.727997 19.653997v135.796982z m307.044958 151.296979H728.63797a20.024997 20.024997 0 0 1-20.024997-20.023997V733.6429a20.024997 20.024997 0 0 1 20.024997-20.024998h218.267971a19.949997 19.949997 0 0 1 19.949997 20.024998v238.069967z" fill="#515151" p-id="16507"></path></svg>