<?xml version="1.0" standalone="no"?><!DOCTYPE svg PUBLIC "-//W3C//DTD SVG 1.1//EN" "http://www.w3.org/Graphics/SVG/1.1/DTD/svg11.dtd"><svg t="1540262585727" class="icon" style="" viewBox="0 0 1024 1024" version="1.1" xmlns="http://www.w3.org/2000/svg" p-id="3338" xmlns:xlink="http://www.w3.org/1999/xlink" width="200" height="200"><defs><style type="text/css"></style></defs><path d="M454.826667 573.44L350.094222 493.056a49.777778 49.777778 0 0 0-66.730666 5.461333 51.2 51.2 0 0 0-1.877334 67.754667l126.008889 151.04a56.888889 56.888889 0 0 0 57.514667 18.773333 56.661333 56.661333 0 0 0 32.824889-17.976889l267.605333-296.277333a47.445333 47.445333 0 0 0-0.113778-63.715555 43.690667 43.690667 0 0 0-61.155555-3.413334L454.826667 573.44zM512 967.111111A455.111111 455.111111 0 1 1 512 56.888889a455.111111 455.111111 0 0 1 0 910.222222z" p-id="3339" fill="#5ABB3C"></path></svg>