<?xml version="1.0" standalone="no"?><!DOCTYPE svg PUBLIC "-//W3C//DTD SVG 1.1//EN" "http://www.w3.org/Graphics/SVG/1.1/DTD/svg11.dtd"><svg t="1540196203792" class="icon" style="" viewBox="0 0 1024 1024" version="1.1" xmlns="http://www.w3.org/2000/svg" p-id="5428" xmlns:xlink="http://www.w3.org/1999/xlink" width="200" height="200"><defs><style type="text/css"></style></defs><path d="M502.857143 429.714286c69.046857 0.438857 138.020571-6.217143 205.677714-19.968 63.780571-13.312 114.102857-32.914286 150.893714-58.953143v78.994286c0 21.357714-16.018286 41.252571-47.762285 59.465142-31.817143 18.285714-75.264 32.841143-129.974857 43.446858-54.857143 10.605714-114.395429 16.018286-178.688 16.018285s-123.904-5.412571-178.761143-16.091428c-54.784-10.678857-98.011429-25.088-129.901715-43.373715-31.890286-18.212571-47.835429-38.034286-47.835428-59.465142v-78.994286c36.864 26.038857 87.113143 45.787429 150.820571 58.953143 63.634286 13.385143 132.242286 20.041143 205.531429 20.041143z m0 356.571428c69.046857 0.438857 138.020571-6.290286 205.677714-20.041143 63.780571-13.312 114.102857-32.914286 150.893714-58.953142v78.994285c0 21.357714-16.018286 41.179429-47.762285 59.465143-31.817143 18.285714-75.264 32.914286-129.974857 43.446857a938.422857 938.422857 0 0 1-178.688 15.945143c-64.292571 0-123.904-5.339429-178.761143-15.945143-54.784-10.605714-98.011429-25.161143-129.901715-43.373714-31.890286-18.285714-47.835429-38.034286-47.835428-59.538286V707.291429c36.864 26.038857 87.113143 45.714286 150.820571 58.953142 63.634286 13.312 132.242286 19.968 205.531429 19.968v0.073143z m0-178.249143c69.046857 0.438857 138.020571-6.290286 205.677714-19.968 63.780571-13.385143 114.102857-32.914286 150.893714-58.953142v78.921142c0 21.357714-16.018286 41.252571-47.762285 59.392-31.817143 18.285714-75.264 32.694857-129.974857 43.373715a938.422857 938.422857 0 0 1-178.688 16.018285c-64.292571 0-123.904-5.339429-178.761143-16.018285-54.784-10.532571-98.011429-25.088-129.901715-43.373715-31.890286-18.285714-47.835429-38.034286-47.835428-59.392V529.188571c36.864 25.965714 87.113143 45.641143 150.820571 58.953143 63.634286 13.165714 132.242286 19.894857 205.531429 19.894857z m0-534.893714c64.365714 0 124.050286 5.339429 178.834286 16.018286 54.710857 10.532571 98.011429 25.161143 129.974857 43.373714 31.744 18.285714 47.762286 38.034286 47.762285 59.392v59.538286c0 21.357714-16.018286 41.252571-47.762285 59.392-31.963429 18.285714-75.264 32.694857-130.194286 43.373714-54.564571 10.752-114.176 16.091429-178.614857 16.091429-64.365714 0-123.977143-5.339429-178.761143-16.018286-54.710857-10.532571-98.011429-25.088-129.974857-43.373714C162.377143 292.644571 146.285714 272.896 146.285714 251.392v-59.392c0-21.284571 16.018286-41.179429 47.762286-59.318857 31.817143-18.285714 75.264-32.841143 129.974857-43.446857A933.595429 933.595429 0 0 1 502.930286 73.142857h-0.073143z" fill="#8A94C2" p-id="5429"></path></svg>