<?xml version="1.0" standalone="no"?><!DOCTYPE svg PUBLIC "-//W3C//DTD SVG 1.1//EN" "http://www.w3.org/Graphics/SVG/1.1/DTD/svg11.dtd"><svg t="1545031753666" class="icon" style="" viewBox="0 0 1024 1024" version="1.1" xmlns="http://www.w3.org/2000/svg" p-id="4983" xmlns:xlink="http://www.w3.org/1999/xlink" width="200" height="200"><defs><style type="text/css"></style></defs><path d="M512 448a1080.32 1080.32 0 0 0 221.504-21.504C802.176 412.16 856.32 391.04 896 363.008v85.056c0 22.976-17.216 44.416-51.456 64-34.24 19.712-81.024 35.392-139.968 46.784-59.008 11.456-123.2 17.28-192.384 17.28-69.248 0-133.504-5.824-192.512-17.28-59.008-11.52-105.6-27.072-139.968-46.72-34.304-19.648-51.456-40.96-51.456-64.064V363.008c39.68 28.032 93.824 49.28 162.432 63.488 68.544 14.4 142.4 21.568 221.376 21.568z m0 384a1080.32 1080.32 0 0 0 221.504-21.568c68.672-14.4 122.816-35.456 162.496-63.488V832c0 22.976-17.216 44.352-51.456 64-34.24 19.712-81.024 35.392-139.968 46.784-59.008 11.456-123.2 17.216-192.384 17.216-69.248 0-133.504-5.76-192.512-17.216-59.008-11.392-105.6-27.072-139.968-46.72-34.304-19.712-51.456-40.96-51.456-64.064V746.88c39.68 28.032 93.824 49.28 162.432 63.488 68.544 14.336 142.4 21.568 221.376 21.568z m0-192a1080.32 1080.32 0 0 0 221.504-21.504c68.672-14.4 122.816-35.456 162.496-63.488V640c0 23.04-17.216 44.416-51.456 64-34.24 19.648-81.024 35.2-139.968 46.72-59.008 11.456-123.2 17.216-192.384 17.216-69.248 0-133.504-5.76-192.512-17.216-59.008-11.392-105.6-27.072-139.968-46.72-34.304-19.712-51.456-40.96-51.456-64V555.136c39.68 27.968 93.824 49.088 162.432 63.424 68.544 14.272 142.4 21.44 221.376 21.44z m0-576c69.376 0 133.568 5.76 192.576 17.216 58.944 11.392 105.6 27.072 139.968 46.72 34.24 19.712 51.456 40.96 51.456 64V256c0 23.04-17.216 44.416-51.456 64-34.368 19.648-81.024 35.2-140.16 46.72C645.568 378.24 581.376 384 512 384c-69.312 0-133.504-5.76-192.512-17.216-58.944-11.392-105.6-27.072-139.968-46.72C145.216 300.352 128 279.04 128 255.936V192c0-22.976 17.216-44.352 51.456-63.936 34.24-19.648 81.024-35.328 139.968-46.72A1005.44 1005.44 0 0 1 512.064 64z" fill="#606BE1" p-id="4984"></path></svg>