<?xml version="1.0" standalone="no"?><!DOCTYPE svg PUBLIC "-//W3C//DTD SVG 1.1//EN" "http://www.w3.org/Graphics/SVG/1.1/DTD/svg11.dtd"><svg t="1540262554688" class="icon" style="" viewBox="0 0 1024 1024" version="1.1" xmlns="http://www.w3.org/2000/svg" p-id="3160" xmlns:xlink="http://www.w3.org/1999/xlink" width="200" height="200"><defs><style type="text/css"></style></defs><path d="M604.16 519.36l111.232 111.232a64 64 0 1 1-90.496 90.496L513.6 609.92l-113.728 113.728a64 64 0 1 1-90.496-90.496L423.04 519.36 308.096 404.288a64 64 0 0 1 90.496-90.496L513.6 428.8l112.512-112.512a64 64 0 0 1 90.56 90.496L604.096 519.36zM512 1024A512 512 0 1 1 512 0a512 512 0 0 1 0 1024z m0-128A384 384 0 1 0 512 128a384 384 0 0 0 0 768z" fill="#FF6459" p-id="3161"></path></svg>