<?xml version="1.0" standalone="no"?><!DOCTYPE svg PUBLIC "-//W3C//DTD SVG 1.1//EN" "http://www.w3.org/Graphics/SVG/1.1/DTD/svg11.dtd"><svg t="1578561753886" class="icon" viewBox="0 0 1024 1024" version="1.1" xmlns="http://www.w3.org/2000/svg" p-id="7111" xmlns:xlink="http://www.w3.org/1999/xlink" width="200" height="200"><defs><style type="text/css"></style></defs><path d="M964.242286 229.961143v-10.020572l-11.483429 3.364572-8.045714 2.998857-265.801143 93.769143L773.705143 34.523429l-21.211429-0.585143L640.731429 31.305143l-14.189715 2.633143c-44.032 8.045714-77.092571 35.986286-91.209143 76.653714l-0.073142 0.365714-0.073143 0.438857-63.414857 283.794286-182.052572 64.146286A142.262857 142.262857 0 0 0 59.977143 420.717714a140.068571 140.068571 0 0 0 2.852571 198.948572c56.100571 54.052571 145.481143 52.809143 200.045715-2.852572 7.314286-7.533714 14.043429-16.091429 19.748571-25.6l154.112-39.131428-39.131429 175.323428a140.068571 140.068571 0 0 0-16.237714 215.04 142.336 142.336 0 0 0 200.045714-2.706285 140.068571 140.068571 0 0 0-41.984-225.718858l66.998858-205.165714 288.036571-73.142857 1.170286-0.365714c44.178286-19.529143 68.022857-49.005714 75.117714-92.745143l0.073143-0.731429-0.146286-0.804571-6.363428-111.104zM118.857143 562.176a60.416 60.416 0 0 1-1.170286-85.650286 61.44 61.44 0 0 1 86.308572-1.316571 60.562286 60.562286 0 0 1 1.170285 85.869714 61.293714 61.293714 0 0 1-86.308571 1.097143zM437.540571 885.028571a60.489143 60.489143 0 0 1-1.170285-85.796571 61.44 61.44 0 0 1 86.235428-1.243429 60.562286 60.562286 0 0 1 1.170286 85.869715 61.293714 61.293714 0 0 1-86.235429 1.170285z" fill="#606be1" p-id="7112"></path></svg>