<?xml version="1.0" standalone="no"?><!DOCTYPE svg PUBLIC "-//W3C//DTD SVG 1.1//EN" "http://www.w3.org/Graphics/SVG/1.1/DTD/svg11.dtd"><svg t="1540196211132" class="icon" style="" viewBox="0 0 1024 1024" version="1.1" xmlns="http://www.w3.org/2000/svg" p-id="5538" xmlns:xlink="http://www.w3.org/1999/xlink" width="200" height="200"><defs><style type="text/css"></style></defs><path d="M161.060571 66.925714h689.590858c51.931429 0 94.061714 42.130286 94.061714 94.061715v689.590857c0 51.931429-42.130286 94.061714-94.061714 94.061714H161.060571c-51.931429 0-94.061714-42.130286-94.061714-94.061714V160.987429c0-51.931429 42.057143-94.061714 94.061714-94.061715z m501.540572 658.285715c0 17.334857 14.043429 31.378286 31.305143 31.378285h31.378285a31.378286 31.378286 0 0 0 31.305143-31.378285v-438.857143a31.378286 31.378286 0 0 0-31.305143-31.378286h-31.378285a31.378286 31.378286 0 0 0-31.305143 31.378286v438.857143z m-313.490286-438.857143a31.378286 31.378286 0 0 0-31.378286-31.378286h-31.305142a31.378286 31.378286 0 0 0-31.378286 31.378286v438.857143c0 17.334857 14.043429 31.378286 31.378286 31.378285h31.305142a31.378286 31.378286 0 0 0 31.378286-31.378285v-438.857143z m188.050286-31.378286h-62.683429a31.378286 31.378286 0 0 0-31.305143 31.378286v62.683428c0 17.334857 14.043429 31.378286 31.305143 31.378286h62.683429a31.378286 31.378286 0 0 0 31.378286-31.378286v-62.683428a31.378286 31.378286 0 0 0-31.378286-31.378286z m0 376.173714h-62.683429a31.378286 31.378286 0 0 0-31.305143 31.378286v62.683429c0 17.334857 14.043429 31.378286 31.305143 31.378285h62.683429a31.378286 31.378286 0 0 0 31.378286-31.378285v-62.683429a31.378286 31.378286 0 0 0-31.378286-31.378286z" fill="#8A94C2" p-id="5539"></path></svg>