<?xml version="1.0" standalone="no"?><!DOCTYPE svg PUBLIC "-//W3C//DTD SVG 1.1//EN" "http://www.w3.org/Graphics/SVG/1.1/DTD/svg11.dtd"><svg t="1540196216855" class="icon" style="" viewBox="0 0 1024 1024" version="1.1" xmlns="http://www.w3.org/2000/svg" p-id="5648" xmlns:xlink="http://www.w3.org/1999/xlink" width="200" height="200"><defs><style type="text/css"></style></defs><path d="M668.891429 429.348571v187.757715l-89.234286-87.771429 89.234286-99.986286z m2.925714-146.724571L511.488 462.262857l-182.857143-180.004571a52.882286 52.882286 0 0 0-7.094857-7.021715 31.305143 31.305143 0 0 0-23.698286-10.825142h-31.305143a31.378286 31.378286 0 0 0-31.378285 31.378285v438.857143c0 17.334857 14.043429 31.378286 31.378285 31.378286h31.305143a31.378286 31.378286 0 0 0 31.378286-31.378286V414.208l339.894857 334.555429a52.077714 52.077714 0 0 0 10.532572 9.508571 31.232 31.232 0 0 0 20.48 7.753143h31.378285a31.378286 31.378286 0 0 0 31.378286-31.378286v-438.857143a31.378286 31.378286 0 0 0-31.378286-31.378285h-31.378285a31.378286 31.378286 0 0 0-28.452572 18.285714z m-504.466286-206.262857h689.590857c51.931429 0 94.061714 42.130286 94.061715 94.061714v689.590857c0 51.931429-42.130286 94.061714-94.061715 94.061715H167.350857c-51.931429 0-94.061714-42.130286-94.061714-94.061715V170.422857c0-51.931429 42.130286-94.061714 94.061714-94.061714z" fill="#8A94C2" p-id="5649"></path></svg>