<?xml version="1.0" standalone="no"?><!DOCTYPE svg PUBLIC "-//W3C//DTD SVG 1.1//EN" "http://www.w3.org/Graphics/SVG/1.1/DTD/svg11.dtd"><svg t="1540196118685" class="icon" style="" viewBox="0 0 1024 1024" version="1.1" xmlns="http://www.w3.org/2000/svg" p-id="5255" xmlns:xlink="http://www.w3.org/1999/xlink" width="200" height="200"><defs><style type="text/css"></style></defs><path d="M955.684571 488.521143a329.142857 329.142857 0 1 0-463.945142 462.043428l-377.124572 0.731429a36.571429 36.571429 0 0 1-36.644571-36.571429v-621.714285h877.714285V488.594286z m-877.714285-268.507429L230.4 83.017143a36.571429 36.571429 0 0 1 24.429714-9.289143h523.922286a36.571429 36.571429 0 0 1 24.429714 9.289143l152.502857 136.996571h-877.714285z m561.517714 239.542857a68.388571 68.388571 0 0 0 65.170286 48.786286c30.72 0 56.758857-20.626286 65.243428-48.786286 42.130286 11.556571 80.457143 33.938286 111.177143 65.024a69.632 69.632 0 0 0-8.996571 81.408 67.876571 67.876571 0 0 0 74.386285 32.694858 256.658286 256.658286 0 0 1 0 129.901714 67.876571 67.876571 0 0 0-74.386285 32.768 69.632 69.632 0 0 0 9.142857 81.481143 248.685714 248.685714 0 0 1-111.250286 64.950857 68.315429 68.315429 0 0 0-65.316571-48.786286 68.242286 68.242286 0 0 0-65.170286 48.786286 249.270857 249.270857 0 0 1-111.250286-64.950857 69.632 69.632 0 0 0 8.996572-81.481143 67.876571 67.876571 0 0 0-74.386286-32.694857 259.145143 259.145143 0 0 1 0-129.901715 67.876571 67.876571 0 0 0 74.459429-32.768 69.632 69.632 0 0 0-9.069715-81.408 248.685714 248.685714 0 0 1 111.177143-65.024z m66.048 379.099429a135.168 135.168 0 0 0 134.363429-135.899429 135.168 135.168 0 0 0-134.363429-135.826285A135.168 135.168 0 0 0 571.245714 702.829714c0 74.971429 60.196571 135.826286 134.363429 135.826286z m-1.609143-61.878857a71.826286 71.826286 0 0 1-71.460571-72.265143c0-39.862857 31.963429-72.192 71.460571-72.192s71.460571 32.329143 71.460572 72.192a71.826286 71.826286 0 0 1-71.460572 72.265143z" fill="#8A94C2" p-id="5256"></path></svg>