<?xml version="1.0" standalone="no"?><!DOCTYPE svg PUBLIC "-//W3C//DTD SVG 1.1//EN" "http://www.w3.org/Graphics/SVG/1.1/DTD/svg11.dtd"><svg t="1540262616277" class="icon" style="" viewBox="0 0 1024 1024" version="1.1" xmlns="http://www.w3.org/2000/svg" p-id="3522" xmlns:xlink="http://www.w3.org/1999/xlink" width="200" height="200"><defs><style type="text/css"></style></defs><path d="M512 1024A512 512 0 1 1 512 0a512 512 0 0 1 0 1024z m0-128A384 384 0 1 0 512 128a384 384 0 0 0 0 768zM512 192a64 64 0 0 1 64 64v278.848a64 64 0 1 1-128 0V256a64 64 0 0 1 64-64z m0 576c-35.328 0-64-27.968-64-62.464 0-34.56 28.672-62.464 64-62.464s64 27.968 64 62.464c0 34.496-28.672 62.464-64 62.464z" fill="#FEA92D" p-id="3523"></path></svg>